<mxfile host="app.diagrams.net" agent="Mozilla/5.0 (Macintosh; Intel Mac OS X 10_15_7) AppleWebKit/605.1.15 (KHTML, like Gecko) Version/18.3.1 Safari/605.1.15" version="26.2.9">
  <diagram name="Page-1" id="Dnn_IrxOLH-KTdM8TZEc">
    <mxGraphModel dx="1187" dy="769" grid="1" gridSize="10" guides="1" tooltips="1" connect="1" arrows="1" fold="1" page="1" pageScale="1" pageWidth="827" pageHeight="1169" math="0" shadow="0">
      <root>
        <mxCell id="0" />
        <mxCell id="1" parent="0" />
        <mxCell id="AwrK484-JfmSxCrr8Lho-10" style="edgeStyle=orthogonalEdgeStyle;rounded=0;orthogonalLoop=1;jettySize=auto;html=1;exitX=0.5;exitY=1;exitDx=0;exitDy=0;entryX=0.5;entryY=0;entryDx=0;entryDy=0;endArrow=classic;startFill=1;startArrow=classic;endFill=1;" edge="1" parent="1" source="AwrK484-JfmSxCrr8Lho-1" target="AwrK484-JfmSxCrr8Lho-2">
          <mxGeometry relative="1" as="geometry" />
        </mxCell>
        <mxCell id="AwrK484-JfmSxCrr8Lho-1" value="JTAGG" style="rounded=0;whiteSpace=wrap;html=1;" vertex="1" parent="1">
          <mxGeometry x="40" y="70" width="240" height="100" as="geometry" />
        </mxCell>
        <mxCell id="AwrK484-JfmSxCrr8Lho-13" style="edgeStyle=orthogonalEdgeStyle;rounded=0;orthogonalLoop=1;jettySize=auto;html=1;exitX=0;exitY=0.5;exitDx=0;exitDy=0;entryX=0;entryY=0.25;entryDx=0;entryDy=0;" edge="1" parent="1" source="AwrK484-JfmSxCrr8Lho-2" target="AwrK484-JfmSxCrr8Lho-3">
          <mxGeometry relative="1" as="geometry" />
        </mxCell>
        <mxCell id="AwrK484-JfmSxCrr8Lho-2" value="IP Core" style="rounded=0;whiteSpace=wrap;html=1;" vertex="1" parent="1">
          <mxGeometry x="100" y="220" width="120" height="60" as="geometry" />
        </mxCell>
        <mxCell id="AwrK484-JfmSxCrr8Lho-14" style="edgeStyle=orthogonalEdgeStyle;rounded=0;orthogonalLoop=1;jettySize=auto;html=1;exitX=1;exitY=0.75;exitDx=0;exitDy=0;entryX=1;entryY=0.5;entryDx=0;entryDy=0;" edge="1" parent="1" source="AwrK484-JfmSxCrr8Lho-3" target="AwrK484-JfmSxCrr8Lho-6">
          <mxGeometry relative="1" as="geometry" />
        </mxCell>
        <mxCell id="AwrK484-JfmSxCrr8Lho-16" style="edgeStyle=orthogonalEdgeStyle;rounded=0;orthogonalLoop=1;jettySize=auto;html=1;exitX=1;exitY=0.25;exitDx=0;exitDy=0;entryX=1;entryY=0.5;entryDx=0;entryDy=0;" edge="1" parent="1" source="AwrK484-JfmSxCrr8Lho-3" target="AwrK484-JfmSxCrr8Lho-2">
          <mxGeometry relative="1" as="geometry" />
        </mxCell>
        <mxCell id="AwrK484-JfmSxCrr8Lho-3" value="PingPong buffer&lt;div&gt;&lt;br&gt;&lt;/div&gt;&lt;div&gt;1KB&lt;/div&gt;&lt;div&gt;&lt;br&gt;&lt;/div&gt;&lt;div&gt;1KB&lt;/div&gt;&lt;div&gt;&lt;br&gt;&lt;/div&gt;&lt;div&gt;&lt;br&gt;&lt;/div&gt;" style="rounded=0;whiteSpace=wrap;html=1;" vertex="1" parent="1">
          <mxGeometry x="100" y="330" width="120" height="60" as="geometry" />
        </mxCell>
        <mxCell id="AwrK484-JfmSxCrr8Lho-5" value="" style="endArrow=none;html=1;rounded=0;exitX=0;exitY=0.5;exitDx=0;exitDy=0;entryX=1;entryY=0.5;entryDx=0;entryDy=0;" edge="1" parent="1" source="AwrK484-JfmSxCrr8Lho-3" target="AwrK484-JfmSxCrr8Lho-3">
          <mxGeometry width="50" height="50" relative="1" as="geometry">
            <mxPoint x="280" y="410" as="sourcePoint" />
            <mxPoint x="220" y="360" as="targetPoint" />
          </mxGeometry>
        </mxCell>
        <mxCell id="AwrK484-JfmSxCrr8Lho-15" style="edgeStyle=orthogonalEdgeStyle;rounded=0;orthogonalLoop=1;jettySize=auto;html=1;exitX=0;exitY=0.5;exitDx=0;exitDy=0;entryX=0;entryY=0.75;entryDx=0;entryDy=0;" edge="1" parent="1" source="AwrK484-JfmSxCrr8Lho-6" target="AwrK484-JfmSxCrr8Lho-3">
          <mxGeometry relative="1" as="geometry" />
        </mxCell>
        <mxCell id="AwrK484-JfmSxCrr8Lho-17" style="edgeStyle=orthogonalEdgeStyle;rounded=0;orthogonalLoop=1;jettySize=auto;html=1;entryX=0.5;entryY=0;entryDx=0;entryDy=0;startArrow=classic;startFill=1;" edge="1" parent="1" source="AwrK484-JfmSxCrr8Lho-6" target="AwrK484-JfmSxCrr8Lho-7">
          <mxGeometry relative="1" as="geometry">
            <mxPoint x="160" y="550" as="targetPoint" />
          </mxGeometry>
        </mxCell>
        <mxCell id="AwrK484-JfmSxCrr8Lho-6" value="DMA" style="rounded=0;whiteSpace=wrap;html=1;" vertex="1" parent="1">
          <mxGeometry x="100" y="450" width="120" height="60" as="geometry" />
        </mxCell>
        <mxCell id="AwrK484-JfmSxCrr8Lho-24" style="edgeStyle=orthogonalEdgeStyle;rounded=0;orthogonalLoop=1;jettySize=auto;html=1;entryX=0.5;entryY=0;entryDx=0;entryDy=0;startArrow=classic;startFill=1;exitX=0.691;exitY=1.001;exitDx=0;exitDy=0;exitPerimeter=0;" edge="1" parent="1" source="AwrK484-JfmSxCrr8Lho-7" target="AwrK484-JfmSxCrr8Lho-21">
          <mxGeometry relative="1" as="geometry">
            <mxPoint x="320" y="622" as="sourcePoint" />
            <Array as="points">
              <mxPoint x="320" y="630" />
              <mxPoint x="320" y="630" />
            </Array>
          </mxGeometry>
        </mxCell>
        <mxCell id="AwrK484-JfmSxCrr8Lho-7" value="Shared bus Architecture" style="rounded=0;whiteSpace=wrap;html=1;" vertex="1" parent="1">
          <mxGeometry x="75" y="560" width="355" height="60" as="geometry" />
        </mxCell>
        <mxCell id="AwrK484-JfmSxCrr8Lho-33" style="edgeStyle=orthogonalEdgeStyle;rounded=0;orthogonalLoop=1;jettySize=auto;html=1;startArrow=classic;startFill=1;" edge="1" parent="1" source="AwrK484-JfmSxCrr8Lho-8">
          <mxGeometry relative="1" as="geometry">
            <mxPoint x="150" y="620" as="targetPoint" />
          </mxGeometry>
        </mxCell>
        <mxCell id="AwrK484-JfmSxCrr8Lho-8" value="SDRAM Controller" style="rounded=0;whiteSpace=wrap;html=1;" vertex="1" parent="1">
          <mxGeometry x="90" y="650" width="120" height="60" as="geometry" />
        </mxCell>
        <mxCell id="AwrK484-JfmSxCrr8Lho-21" value="Other Component" style="rounded=0;whiteSpace=wrap;html=1;" vertex="1" parent="1">
          <mxGeometry x="260" y="650" width="120" height="60" as="geometry" />
        </mxCell>
        <mxCell id="AwrK484-JfmSxCrr8Lho-25" value="" style="endArrow=none;html=1;rounded=0;endFill=1;startArrow=classic;startFill=1;" edge="1" parent="1">
          <mxGeometry width="50" height="50" relative="1" as="geometry">
            <mxPoint x="60" y="70" as="sourcePoint" />
            <mxPoint x="60" y="40" as="targetPoint" />
          </mxGeometry>
        </mxCell>
        <mxCell id="AwrK484-JfmSxCrr8Lho-26" value="" style="endArrow=none;html=1;rounded=0;startArrow=classic;startFill=1;" edge="1" parent="1">
          <mxGeometry width="50" height="50" relative="1" as="geometry">
            <mxPoint x="110" y="70" as="sourcePoint" />
            <mxPoint x="110" y="40" as="targetPoint" />
          </mxGeometry>
        </mxCell>
        <mxCell id="AwrK484-JfmSxCrr8Lho-27" value="" style="endArrow=none;html=1;rounded=0;startArrow=classic;startFill=1;" edge="1" parent="1">
          <mxGeometry width="50" height="50" relative="1" as="geometry">
            <mxPoint x="170" y="70" as="sourcePoint" />
            <mxPoint x="170" y="40" as="targetPoint" />
          </mxGeometry>
        </mxCell>
        <mxCell id="AwrK484-JfmSxCrr8Lho-28" value="" style="endArrow=classic;html=1;rounded=0;endFill=1;" edge="1" parent="1">
          <mxGeometry width="50" height="50" relative="1" as="geometry">
            <mxPoint x="240" y="70" as="sourcePoint" />
            <mxPoint x="240" y="40" as="targetPoint" />
          </mxGeometry>
        </mxCell>
        <mxCell id="AwrK484-JfmSxCrr8Lho-29" value="TCK" style="text;html=1;align=center;verticalAlign=middle;whiteSpace=wrap;rounded=0;" vertex="1" parent="1">
          <mxGeometry x="30" y="70" width="60" height="30" as="geometry" />
        </mxCell>
        <mxCell id="AwrK484-JfmSxCrr8Lho-30" value="TDI" style="text;html=1;align=center;verticalAlign=middle;whiteSpace=wrap;rounded=0;" vertex="1" parent="1">
          <mxGeometry x="80" y="70" width="60" height="30" as="geometry" />
        </mxCell>
        <mxCell id="AwrK484-JfmSxCrr8Lho-31" value="TMS" style="text;html=1;align=center;verticalAlign=middle;whiteSpace=wrap;rounded=0;" vertex="1" parent="1">
          <mxGeometry x="140" y="70" width="60" height="30" as="geometry" />
        </mxCell>
        <mxCell id="AwrK484-JfmSxCrr8Lho-32" value="TDO" style="text;html=1;align=center;verticalAlign=middle;whiteSpace=wrap;rounded=0;" vertex="1" parent="1">
          <mxGeometry x="210" y="70" width="60" height="30" as="geometry" />
        </mxCell>
      </root>
    </mxGraphModel>
  </diagram>
</mxfile>
